PathFileType	4	(X/Y/Z)	C:\Users\chris\Documents\GitHub\baseballds\vids\pitch5_Sports2D\pitch5_Sports2D_m_person04.trc
DataRate	CameraRate	NumFrames	NumMarkers	Units	OrigDataRate	OrigDataStartFrame	OrigNumFrames
30	30	10	22	m	30	0	149
Frame#	Time	Hip			RHip			RKnee			RAnkle			RBigToe			RSmallToe			RHeel			LHip			LKnee			LAnkle			LBigToe			LSmallToe			LHeel			Neck			Head			Nose			RShoulder			RElbow			RWrist			LShoulder			LElbow			LWrist		
		X1	Y1	Z1	X2	Y2	Z2	X3	Y3	Z3	X4	Y4	Z4	X5	Y5	Z5	X6	Y6	Z6	X7	Y7	Z7	X8	Y8	Z8	X9	Y9	Z9	X10	Y10	Z10	X11	Y11	Z11	X12	Y12	Z12	X13	Y13	Z13	X14	Y14	Z14	X15	Y15	Z15	X16	Y16	Z16	X17	Y17	Z17	X18	Y18	Z18	X19	Y19	Z19	X20	Y20	Z20	X21	Y21	Z21	X22	Y22	Z22
0	0.0	2.6479559214729713	1.3884423865150977	0.0	2.642317913918117	1.3932572188026653	0.0	2.6199962956781286	1.3757632478938064	0.0	2.603897683273667	1.3430620534090898	0.0	2.6097069942538935	1.3355988394664753	0.0	2.6178057502648624	1.3309418236290431	0.0	2.607201013767006	1.3328408959448383	0.0	2.648052589270518	1.3884219723313571	0.0	2.6337434355164113	1.3688710037116298	0.0	2.62494948287845	1.344510218799993	0.0	2.6390292825184334	1.329800451112117	0.0	2.6329635223657966	1.3424307065037289	0.0	2.6148691668013857	1.3385734573937955	0.0	2.6484943335981046	1.420290550192148	0.0	2.665099956977874	1.4451456478737086	0.0	2.665880056791922	1.4346220651787616	0.0	2.6244902989509833	1.426373398257151	0.0	2.5814816262560862	1.4075335944203038	0.0	2.6297294233743256	1.3925840439300445	0.0	2.669161538658601	1.424259131718059	0.0	2.6424494721272525	1.3961800577883274	0.0	2.6642785776377877	1.384611532439052	0.0
1	0.03333333333333333	2.6449035741794535	1.386572697708245	0.0	2.6392819222402544	1.3907736134737338	0.0	2.61935742231979	1.372796548791676	0.0	2.6044615921868943	1.3412316401582034	0.0	2.6101573905369695	1.334237427546826	0.0	2.616855908275867	1.3299910872281433	0.0	2.6072323182618384	1.3319183029065427	0.0	2.6457619034170636	1.3863915068164339	0.0	2.633216675209717	1.3665315675924623	0.0	2.6252027798302753	1.3425154768987742	0.0	2.6376750380637226	1.329004265129874	0.0	2.6325958581870608	1.340432855351299	0.0	2.615894969439038	1.337033680930135	0.0	2.6462730255523454	1.419244399635222	0.0	2.661329273349386	1.4433092423056022	0.0	2.662469010826775	1.4327574889774115	0.0	2.624431812349688	1.4241094160088499	0.0	2.587005005334433	1.4057563399920026	0.0	2.631369183224695	1.3920294863599432	0.0	2.665045858947382	1.4221853074272421	0.0	2.6418961280217053	1.3960037487743726	0.0	2.6623044709044072	1.38532114706996	0.0
2	0.06666666666666667	2.6418516641529224	1.3847032716830858	0.0	2.6362463627872548	1.388290358400503	0.0	2.6187186401802385	1.369830269201636	0.0	2.6050254212833366	1.339401480763919	0.0	2.6106077321482686	1.3328762061310981	0.0	2.615906215716063	1.3290404809408953	0.0	2.607263621699234	1.330995834865627	0.0	2.6434715451523934	1.3843613246158697	0.0	2.6326899909052806	1.3641924621124417	0.0	2.625456040745268	1.3405210128623082	0.0	2.6363209954713116	1.3282081857751502	0.0	2.6322282493396414	1.338435279114614	0.0	2.6169206260135627	1.3354941188037932	0.0	2.64405203909355	1.4181983943169576	0.0	2.657559151598765	1.4414730963831721	0.0	2.659058467347084	1.4308931776191893	0.0	2.6243733408767103	1.4218457615010096	0.0	2.5925276263681	1.403979364879482	0.0	2.6330087093232213	1.3914750084118406	0.0	2.660930771230648	1.420111776582314	0.0	2.6413428741247267	1.3958274643696749	0.0	2.660330671120553	1.3860306739969985	0.0
3	0.1	2.638804242130834	1.3828337729173248	0.0	2.6332146267738628	1.3858080722019779	0.0	2.618080133916669	1.3668655081446532	0.0	2.605588828728192	1.337570628237089	0.0	2.6110587752570846	1.3315138917368436	0.0	2.6149599859474932	1.32808770133565	0.0	2.6072960358807338	1.3300711838236468	0.0	2.641184249333437	1.3823311073304565	0.0	2.6321636551518357	1.3618543251311628	0.0	2.6257090297259826	1.338526564823203	0.0	2.6349709903035654	1.3274098411195583	0.0	2.631861827183196	1.3364378857901698	0.0	2.617944754246802	1.3339538280983005	0.0	2.6418352478620304	1.417150561081554	0.0	2.6537980625686215	1.4396364621784603	0.0	2.65565491477515	1.429028464506716	0.0	2.6243146624802853	1.4195836611745214	0.0	2.598040286337922	1.4022052340771691	0.0	2.6346461114541384	1.3909213870043984	0.0	2.656824008423858	1.418038391759484	0.0	2.640791488295817	1.395647927244343	0.0	2.658363083539725	1.3867364808454778	0.0
4	0.13333333333333333	2.635765270342322	1.3809641514819182	0.0	2.630190100877905	1.3833276275237127	0.0	2.6174421459178587	1.3639036226162244	0.0	2.6061514390007314	1.3357384994761312	0.0	2.611511094465594	1.3301495298642503	0.0	2.614020216338657	1.3271308461428166	0.0	2.6073305286639323	1.3291424446307536	0.0	2.6389027212728067	1.3803008502256302	0.0	2.6316379711606457	1.3595180245359582	0.0	2.6259615058334127	1.3365321752646302	0.0	2.6336285552481344	1.3266072551136583	0.0	2.6314976284436478	1.3344408832212027	0.0	2.6189660002213526	1.332412185217181	0.0	2.6396263421997754	1.4160992959993723	0.0	2.650053884238627	1.4377989130656936	0.0	2.6522644624800784	1.42716299365705	0.0	2.6242555588091507	1.417324462443611	0.0	2.603534013987399	1.4004363334238306	0.0	2.636279509760588	1.3903693775914867	0.0	2.6527329172288274	1.4159652885762144	0.0	2.640243568216461	1.3954622546575335	0.0	2.656407082847426	1.3874352011291837	0.0
5	0.16666666666666666	2.632719159331913	1.3790945681400812	0.0	2.6271594902250937	1.3808455747902808	0.0	2.6168036922789852	1.3609392469908084	0.0	2.606714728947819	1.3339074022725899	0.0	2.6119622639408	1.3287868116235038	0.0	2.613074902168016	1.326177346789373	0.0	2.6073632733390864	1.3282170885522238	0.0	2.636616313434674	1.3782705864995763	0.0	2.6311117084256233	1.3571801159732102	0.0	2.626214416613737	1.334537705667047	0.0	2.6322797136497758	1.325808190296364	0.0	2.6311315452900366	1.3324435750800485	0.0	2.6199896679126575	1.3308716274408257	0.0	2.637410772177705	1.415050832468615	0.0	2.6462952843503817	1.435962030913328	0.0	2.648862844695985	1.4252980429486983	0.0	2.6241967061298985	1.4150626790517802	0.0	2.609043184562499	1.3986626804205347	0.0	2.6379162884762732	1.389816005774994	0.0	2.6486286620368973	1.4138918581575826	0.0	2.6396926183561273	1.3952816052122663	0.0	2.654441115741458	1.3881395847054752	0.0
6	0.2	2.6296159267951533	1.3772253798483551	0.0	2.6240800836514495	1.3783506802758854	0.0	2.6161616096025235	1.3579550062066157	0.0	2.607283464011934	1.332084472322171	0.0	2.612404819980365	1.3274374303781995	0.0	2.6120859797916185	1.3252508393793658	0.0	2.607382109157037	1.3273188446120503	0.0	2.6342908703842256	1.376240184259812	0.0	2.6305809396511766	1.3548294154004825	0.0	2.626470807913971	1.3325424628022218	0.0	2.6308799032551833	1.3250373010467948	0.0	2.630750491790065	1.3304433706902765	0.0	2.621032791250937	1.32933977293283	0.0	2.635141995196279	1.4140250119272817	0.0	2.6424224976869297	1.4341307817767874	0.0	2.645372702215301	1.423437640978003	0.0	2.6241404894174227	1.4127808329189535	0.0	2.6146790777229847	1.396853061438326	0.0	2.6395801592339265	1.3892517408160416	0.0	2.644418865076188	1.4118160355216052	0.0	2.6391181622157056	1.395141739138957	0.0	2.6523968484322884	1.3888909605194362	0.0
7	0.23333333333333334	2.626441207732181	1.3753566504019592	0.0	2.620939517763802	1.3758396415291205	0.0	2.6155150249789876	1.3549458478989376	0.0	2.6078590314438026	1.3302715967467085	0.0	2.612837015156187	1.3261047567581516	0.0	2.611043032024448	1.3243580843420049	0.0	2.607383626186456	1.3264544419641002	0.0	2.6319165707032	1.3742094543976258	0.0	2.6300445970515587	1.3524626711750416	0.0	2.6267315600374777	1.330546071153893	0.0	2.629416559249327	1.3243015610101552	0.0	2.630350792782662	1.328439162811596	0.0	2.622100312891849	1.3278187251856357	0.0	2.6328067348361	1.4130275627328759	0.0	2.63840769003681	1.4323066662567245	0.0	2.6417723555846555	1.4215830748577596	0.0	2.624087962425376	1.4104742139489512	0.0	2.6204755188086377	1.394999752373756	0.0	2.641277973425586	1.3886738494773334	0.0	2.640076922102755	1.409737267449874	0.0	2.6385147923203123	1.3950531749878188	0.0	2.650255619101682	1.3897021296130585	0.0
8	0.26666666666666666	2.6234233371541755	1.3734867947394718	0.0	2.617932771254736	1.3733637513283403	0.0	2.614878486233136	1.3519911557323387	0.0	2.6084196773621784	1.3284360109058877	0.0	2.613293639509285	1.3247355209253011	0.0	2.610120845067474	1.3233911933108073	0.0	2.607423490531305	1.3255154569260255	0.0	2.629649450514996	1.3721788411676916	0.0	2.6295207547591555	1.3501310091742278	0.0	2.6269827636495906	1.3285514876117055	0.0	2.6280936277752946	1.3234882743045508	0.0	2.629992363681853	1.3264422176458752	0.0	2.6231145061852916	1.3262736457286592	0.0	2.6306177621487166	1.4119680336290659	0.0	2.6347080569749397	1.4304672706863697	0.0	2.6384161686087184	1.419716317268902	0.0	2.6240289376980264	1.4082233336547552	0.0	2.6259277056613737	1.393247691637454	0.0	2.642901465872278	1.388125880628594	0.0	2.636024644952922	1.4076651857841518	0.0	2.637976909119679	1.394853151767204	0.0	2.6483313045313235	1.390386144123742	0.0
9	0.3	2.621066573346348	1.371612497929021	0.0	2.6154909331886937	1.3710366730375385	0.0	2.6142839053430285	1.349266540954169	0.0	2.6089172645321694	1.3265062488349961	0.0	2.613849269300125	1.323211984627137	0.0	2.6097024610935016	1.3221120447958012	0.0	2.6076241646518397	1.3242629174908649	0.0	2.627834127370774	1.3701501509148226	0.0	2.6290489743899403	1.3479475181695062	0.0	2.6271936743435806	1.32656621207408	0.0	2.6273601473139627	1.322349158060003	0.0	2.6298070408235783	1.3244794525478418	0.0	2.6239034492695006	1.3246280497439646	0.0	2.629044404265504	1.4106464797447975	0.0	2.6323285296324226	1.4285626365199648	0.0	2.6360835849473063	1.417796777501695	0.0	2.6239388090137075	1.4062041829817875	0.0	2.62991027022697	1.3919098428642813	0.0	2.644211336609611	1.3877039749531295	0.0	2.6331939105935382	1.4056207944297785	0.0	2.6377102731431328	1.3941808038782264	0.0	2.647311532417741	1.3905248376692534	0.0
